# xmcd
#
# Track frame offsets: 
#        150
#        14637
#        29076
#        47896
#        65888
#        73518
#        87237
#        106852
#        131133
#        147221
#        160663
#        178453
#        196282
#        211546
#        242877
#        260047
#
# Disc length: 3664 seconds
#
# Revision: 0
# Processed by: cddbd v1.5.2PL0 Copyright (c) Steve Scherf et al.
# Submitted via: ExactAudioCopy v1.0b2
#
DISCID=f60e4e10
DTITLE=Grachmusikoff - Keiner schunkelt - Live im 'Adler'
DYEAR=1900
DGENRE=Rock
TTITLE0=Guad Nacht
TTITLE1=Auf'm Land
TTITLE2=I fühl me so vrdächtig
TTITLE3=Der traurige Musikant
TTITLE4=Intelligent luschdig
TTITLE5=Henderm Mond
TTITLE6=Keiner ischt gefeit
TTITLE7=Jungen
TTITLE8=Wenn e ald ben
TTITLE9=Doubeck Jazz
TTITLE10=Driftin' - I trudl do rom
TTITLE11=Hootschie cootschie man
TTITLE12=Fremde Zigaretten
TTITLE13=Dr große Biffl schafft bei IBM
TTITLE14=Wia'd Sonn von Afrika
TTITLE15=Der traurige Musikant - Stadl Version
EXTD=
EXTT0=
EXTT1=
EXTT2=
EXTT3=
EXTT4=
EXTT5=
EXTT6=
EXTT7=
EXTT8=
EXTT9=
EXTT10=
EXTT11=
EXTT12=
EXTT13=
EXTT14=
EXTT15=
PLAYORDER=
